# AST/ASF file generated using VICON BodyLanguage
# -----------------------------------------------
:version 1.10
:name VICON
:units
  mass 1.0
  length 0.45
  angle deg
:documentation
   .ast/.asf automatically generated from VICON data using
   VICON BodyBuilder and BodyLanguage model FoxedUp or BRILLIANT.MOD
:root
   order TX TY TZ RX RY RZ
   axis XYZ
   position 0 0 0  
   orientation 0 0 0 
:bonedata
  begin
     id 1 
     name lhipjoint
     direction 0.561001 -0.76473 0.316963 
     length 2.4722 
     axis 0 0 0  XYZ
  end
  begin
     id 2 
     name lfemur
     direction 0.34202 -0.939693 0  
     length 7.59403  
     axis 0 0 20  XYZ
    dof rx ry rz
    limits (-160.0 20.0)
           (-70.0 70.0)
           (-60.0 70.0)
  end
  begin
     id 3 
     name ltibia
     direction 0.34202 -0.939693 0   
     length 7.89655   
     axis 0 0 20   XYZ
    dof rx
    limits (-10.0 170.0)
  end
  begin
     id 4 
     name lfoot
     direction 0.061296 -0.168409 0.98381   
     length 2.73287   
     axis -90 7.62852e-016 20   XYZ
    dof rx rz
    limits (-45.0 90.0)
           (-70.0 20.0)
  end
  begin
     id 5 
     name ltoes
     direction 1.53547e-011 -4.21984e-011 1   
     length 1.37057   
     axis -90 7.62852e-016 20   XYZ
    dof rx
    limits (-90.0 20.0)
  end
  begin
     id 6 
     name rhipjoint
     direction -0.559611 -0.765599 0.317323   
     length 2.46939  
     axis 0 0 0  XYZ 
  end
  begin
     id 7 
     name rfemur
     direction -0.34202 -0.939693 0   
     length 7.53712   
     axis 0 0 -20   XYZ
    dof rx ry rz
    limits (-160.0 20.0)
           (-70.0 70.0)
           (-70.0 60.0)
  end
  begin
     id 8 
     name rtibia
     direction -0.34202 -0.939693 0   
     length 8.12549   
     axis 0 0 -20   XYZ
    dof rx
    limits (-10.0 170.0)
 end
 begin
     id 9 
     name rfoot
     direction -0.066984 -0.184037 0.980634   
     length 2.67541  
     axis -90 -7.62852e-016 -20   XYZ
    dof rx rz
    limits (-45.0 90.0)
           (-20.0 70.0)
  end
  begin
     id 10 
     name rtoes
     direction -1.53549e-011 -4.21786e-011 1   
     length 1.34085   
     axis -90 -7.62852e-016 -20   XYZ
    dof rx
    limits (-90.0 20.0)
  end
  begin
     id 11 
     name lowerback
     direction -0.0522728 0.992594 -0.109658   
     length 2.05633   
     axis 0 0 0   XYZ
    dof rx ry rz
    limits (-20.0 45.0)
           (-30.0 30.0)
           (-30.0 30.0)
  end
  begin
     id 12 
     name upperback
     direction 0.00589338 0.999977 0.00335704   
     length 2.05845   
     axis 0 0 0   XYZ
    dof rx ry rz
    limits (-20.0 45.0)
           (-30.0 30.0)
           (-30.0 30.0)
  end
  begin
     id 13 
     name thorax
     direction 0.0292928 0.998059 0.0549487   
     length 2.09281   
     axis 0 0 0   XYZ
    dof rx ry rz
    limits (-20.0 45.0)
           (-30.0 30.0)
           (-30.0 30.0)
  end
  begin
     id 14 
     name lowerneck
     direction 0.0356368 0.980775 0.191858   
     length 1.84767   
     axis 0 0 0   XYZ
    dof rx ry rz
    limits (-20.0 45.0)
           (-30.0 30.0)
           (-30.0 30.0)
  end
  begin
     id 15 
     name upperneck
     direction -0.0227605 0.98931 -0.14404   
     length 1.89582   
     axis 0 0 0   XYZ
    dof rx ry rz
    limits (-20.0 45.0)
           (-30.0 30.0)
           (-30.0 30.0)
  end
  begin
     id 16
     name head
     direction -0.00932985 0.997511 -0.0698904  
     length 1.90213  
     axis 0 0 0   XYZ
    dof rx ry rz
    limits (-20.0 45.0)
           (-30.0 30.0)
           (-30.0 30.0)
  end
  begin
     id 17 
     name lclavicle
     direction 0.873442 0.479511 0.0846686  
     length 3.41193  
     axis 0 0 0   XYZ
    dof ry rz
    limits (-20.0 10.0)
           (0.0 20.0)
  end
  begin
     id 18 
     name lhumerus
     direction 1 -4.4897e-011 -5.62117e-018   
     length 5.59864   
     axis 180 -30 -90   XYZ
    dof rx ry rz
    limits (-60.0 90.0)
           (-90.0 90.0)
           (-90.0 90.0)
  end
  begin
     id 19
     name lradius
     direction 1 -4.48966e-011 -6.26295e-027   
     length 3.59542   
     axis 180 -30 -90   XYZ
    dof rx
    limits (-10.0 170.0)
  end
  begin
     id 20
     name lwrist
     direction 1 -4.48947e-011 -1.74096e-026   
     length 1.79771   
     axis 1.04567e-014 90 90   XYZ
    dof ry
    limits (-180.0 0.0)
 end
  begin
     id 21 
     name lhand
     direction 1 -4.49085e-011 -3.48469e-026   
     length 0.572014   
     axis 2.22196e-014 90 90   XYZ
    dof rx rz
    limits (-90.0 90.0)
           (-45.0 45.0)
  end
  begin
     id 22 
     name lfingers
     direction 1 -4.48884e-011 -6.96135e-026   
     length 0.461173   
     axis 4.44383e-014 90 90   XYZ
    dof rx
    limits (0.0 90.0)
  end
  begin
     id 23
     name lthumb
     direction 0.707107 -6.34976e-011 0.707107   
     length 0.662154   
     axis -90 45 -5.4397e-014   XYZ
    dof rx rz
    limits (-45.0 45.0)
           (-45.0 45.0)
  end
  begin
     id 24 
     name rclavicle
     direction -0.890242 0.443271 0.104786   
     length 3.46753  
     axis 0 0 0   XYZ 
    dof ry rz
    limits (-10.0 20.0)
           (-20.0 0.0)
  end
  begin
     id 25 
     name rhumerus
     direction -1 -4.48963e-011 -5.41723e-018  
     length 5.8094   
     axis 180 30 90   XYZ
    dof rx ry rz
    limits (-90.0 60.0)
           (-90.0 90.0)
           (-90.0 90.0)
  end
  begin
     id 26 
     name rradius
     direction -1 -4.48958e-011 -6.51059e-027   
     length 3.66953   
     axis 180 30 90   XYZ
    dof rx
    limits (-10.0 170.0)
  end
  begin
     id 27 
     name rwrist
     direction -1 -4.48975e-011 -1.74124e-026   
     length 1.83476   
     axis 1.04567e-014 -90 -90   XYZ
    dof ry
    limits (-180.0 0.0)
  end
  begin
     id 28
     name rhand
     direction -1 -4.49013e-011 -3.48326e-026   
     length 0.57843   
     axis 2.22196e-014 -90 -90   XYZ
    dof rx rz
    limits (-90.0 90.0)
           (-45.0 45.0)
  end
  begin
     id 29
     name rfingers
     direction -1 -4.49023e-011 -6.9669e-026   
     length 0.466345   
     axis 4.44383e-014 -90 -90   XYZ
    dof rx
    limits (0.0 90.0)
  end
  begin
     id 30
     name rthumb
     direction -0.707107 -6.34926e-011 0.707107   
     length 0.669581   
     axis -90 -45 5.4397e-014   XYZ
    dof rx rz
    limits (-45.0 45.0)
           (-45.0 45.0)
  end
:hierarchy
  begin
    root lhipjoint rhipjoint lowerback
    lhipjoint lfemur
    lfemur ltibia
    ltibia lfoot
    lfoot ltoes
    rhipjoint rfemur
    rfemur rtibia
    rtibia rfoot
    rfoot rtoes
    lowerback upperback
    upperback thorax
    thorax lowerneck lclavicle rclavicle
    lowerneck upperneck
    upperneck head
    lclavicle lhumerus
    lhumerus lradius
    lradius lwrist
    lwrist lhand lthumb
    lhand lfingers
    rclavicle rhumerus
    rhumerus rradius
    rradius rwrist
    rwrist rhand rthumb
    rhand rfingers
  end

#!OML:ASF H:\SkateBoarding\Project 1\Capture day 1\Session 1\Skater.ASF
:FULLY-SPECIFIED
:DEGREES
310
root 6.56503 18.5201 35.4766 -18.5959 76.4703 -22.6729
lowerback 12.9059 -1.00169 -8.19583
upperback 0.101913 -2.58704 -1.13635
thorax -6.84327 -0.984318 3.88505
lowerneck -13.3742 -9.87971 -4.4696
upperneck 42.5063 -15.0071 5.56189
head 19.5459 -5.49635 0.598623
rclavicle -3.39922e-014 -2.8625e-014
rhumerus -35.3098 -9.04166 -85.6731
rradius 33.9516
rwrist -8.30931
rhand -28.6631 -10.3105
rfingers 7.12502
rthumb -2.02632 -40.2807
lclavicle -3.39922e-014 -2.8625e-014
lhumerus -45.2858 14.4842 59.6191
lradius 25.1615
lwrist 14.8782
lhand -30.3773 25.9365
lfingers 7.12502
lthumb -3.68179 55.8844
rfemur -33.3289 -1.99912 23.9081
rtibia 62.2734
rfoot -33.4997 12.9809
rtoes -13.2469
lfemur -21.3118 -1.08808 -4.0035
ltibia 56.8605
lfoot -42.6298 -10.9965
ltoes -15.3207
311
root 6.56802 18.526 35.8852 -18.5084 76.4492 -22.5687
lowerback 12.8878 -0.991548 -8.21452
upperback 0.120385 -2.57416 -1.15618
thorax -6.81495 -0.979246 3.87106
lowerneck -13.3338 -9.89372 -4.46491
upperneck 42.523 -15.0257 5.55214
head 19.5451 -5.50486 0.59158
rclavicle 3.63776e-014 1.59028e-015
rhumerus -34.994 -8.99835 -85.969
rradius 33.9771
rwrist -8.34489
rhand -28.7113 -10.3198
rfingers 7.12502
rthumb -2.07284 -40.2895
lclavicle 3.63776e-014 1.59028e-015
lhumerus -45.2821 14.5863 59.7527
lradius 25.3299
lwrist 15.3245
lhand -30.4209 25.8986
lfingers 7.12502
lthumb -3.72392 55.8458
rfemur -33.2351 -2.05646 23.953
rtibia 62.1226
rfoot -33.5058 12.9937
rtoes -13.2484
lfemur -21.2715 -1.17684 -3.96063
ltibia 56.7453
lfoot -42.5465 -11.0191
ltoes -15.1941
312
root 6.5715 18.533 36.2926 -18.3461 76.4232 -22.3968
lowerback 12.8538 -0.964329 -8.22727
upperback 0.137198 -2.537 -1.18836
thorax -6.78324 -0.962826 3.83582
lowerneck -13.2908 -9.91939 -4.44313
upperneck 42.5505 -15.062 5.52923
head 19.5481 -5.51848 0.571991
rclavicle -4.17448e-014 1.59028e-015
rhumerus -34.7216 -8.96868 -86.2629
rradius 34.0051
rwrist -8.38765
rhand -28.7554 -10.3341
rfingers 7.12502
rthumb -2.11545 -40.3034
lclavicle -4.17448e-014 1.59028e-015
lhumerus -45.178 14.5234 60.0472
lradius 25.5101
lwrist 15.8066
lhand -30.3348 25.745
lfingers 7.12502
lthumb -3.6408 55.6937
rfemur -33.1262 -2.10424 23.9675
rtibia 61.9316
rfoot -33.504 13.0307
rtoes -13.2236
lfemur -21.2266 -1.26708 -3.95139
ltibia 56.6113
lfoot -42.4858 -11.0164
ltoes -15.0725
313
root 6.57561 18.5411 36.699 -18.1155 76.3936 -22.1591
lowerback 12.8101 -0.924914 -8.23842
upperback 0.150772 -2.48313 -1.22837
thorax -6.75208 -0.938326 3.78821
lowerneck -13.2448 -9.95076 -4.41535
upperneck 42.5925 -15.1046 5.49637
head 19.5579 -5.53385 0.545743
rclavicle 5.78463e-014 3.33958e-014
rhumerus -34.4899 -8.9454 -86.5451
rradius 34.025
rwrist -8.3997
rhand -28.7582 -10.3393
rfingers 7.12502
rthumb -2.1182 -40.3086
lclavicle 5.78463e-014 3.33958e-014
lhumerus -44.995 14.3137 60.4908
lradius 25.7096
lwrist 16.3044
lhand -30.137 25.5086
lfingers 7.12502
lthumb -3.44978 55.4604
rfemur -32.9955 -2.14053 23.9515
rtibia 61.702
rfoot -33.4977 13.1071
rtoes -13.1617
lfemur -21.1728 -1.35427 -3.9749
ltibia 56.4601
lfoot -42.4462 -10.9875
ltoes -14.9828
314
root 6.58041 18.55 37.1044 -17.839 76.3585 -21.8765
lowerback 12.7591 -0.876341 -8.24664
upperback 0.162595 -2.4162 -1.2705
thorax -6.72045 -0.907571 3.73431
lowerneck -13.2081 -9.98555 -4.38223
upperneck 42.654 -15.1469 5.44563
head 19.5796 -5.54898 0.509789
rclavicle 4.77083e-015 -2.70347e-014
rhumerus -34.2915 -8.90427 -86.8195
rradius 34.0381
rwrist -8.40121
rhand -28.7449 -10.3465
rfingers 7.12502
rthumb -2.10532 -40.3158
lclavicle 4.77083e-015 -2.70347e-014
lhumerus -44.7432 13.9712 61.0743
lradius 25.9336
lwrist 16.8129
lhand -29.833 25.2148
lfingers 7.12502
lthumb -3.15622 55.1712
rfemur -32.8407 -2.1674 23.9106
rtibia 61.4367
rfoot -33.4918 13.2144
rtoes -13.0663
lfemur -21.1089 -1.43727 -4.02574
ltibia 56.2939
lfoot -42.4345 -10.9225
ltoes -14.9279
315
root 6.58588 18.5593 37.5089 -17.5257 76.3181 -21.557
lowerback 12.7034 -0.821605 -8.25196
upperback 0.170651 -2.34053 -1.31351
thorax -6.69134 -0.872477 3.67634
lowerneck -13.1766 -10.0218 -4.35012
upperneck 42.733 -15.1859 5.3813
head 19.612 -5.56326 0.468105
rclavicle -2.34566e-014 -6.36111e-015
rhumerus -34.1233 -8.84452 -87.0849
rradius 34.0371
rwrist -8.38756
rhand -28.714 -10.3505
rfingers 7.12502
rthumb -2.07554 -40.3202
lclavicle -2.34566e-014 -6.36111e-015
lhumerus -44.4425 13.5088 61.7795
lradius 26.1919
lwrist 17.321
lhand -29.4528 24.8828
lfingers 7.12502
lthumb -2.78898 54.8443
rfemur -32.6633 -2.18875 23.8488
rtibia 61.142
rfoot -33.484 13.3616
rtoes -12.9389
lfemur -21.0337 -1.51818 -4.09922
ltibia 56.1145
lfoot -42.4437 -10.8389
ltoes -14.8804
316
root 6.59217 18.5691 37.9133 -17.2047 76.2735 -21.2241
lowerback 12.6461 -0.763745 -8.26056
upperback 0.17788 -2.26083 -1.3523
thorax -6.66234 -0.835239 3.62412
lowerneck -13.1521 -10.0563 -4.322
upperneck 42.8246 -15.2169 5.30755
head 19.653 -5.5752 0.423903
rclavicle -4.41302e-014 -2.54444e-014
rhumerus -33.9789 -8.7589 -87.3417
rradius 34.0181
rwrist -8.34868
rhand -28.6744 -10.3589
rfingers 7.12502
rthumb -2.03724 -40.3289
lclavicle -4.41302e-014 -2.54444e-014
lhumerus -44.1082 12.9492 62.5856
lradius 26.4884
lwrist 17.8076
lhand -29.0011 24.5195
lfingers 7.12502
lthumb -2.35278 54.4863
rfemur -32.4562 -2.20058 23.7753
rtibia 60.8253
rfoot -33.4889 13.5327
rtoes -12.7872
lfemur -20.939 -1.59582 -4.18502
ltibia 55.9232
lfoot -42.4691 -10.7534
ltoes -14.8462
